<svg xmlns="http://www.w3.org/2000/svg" width="196.063" height="32.788" viewBox="0 0 196.063 32.788">
  <g id="LOGO_SCP" data-name="LOGO SCP" transform="translate(-3 -3.999)">
    <line id="Line_1" data-name="Line 1" y2="31.203" transform="translate(98.188 4.426)" fill="none" stroke="#000" stroke-width="0.736"/>
    <path id="Path_4" data-name="Path 4" d="M72.955,19.891V11.77H76.95c3.073,0,4.916,1.4,4.916,4.039V15.9c0,2.414-1.843,3.994-4.872,3.994ZM64.438,35.343h8.516V26.564h4.214c7.638,0,13.213-4.528,13.213-11.15s-5-10.8-12.774-10.8H64.438ZM47.8,35.958A15.493,15.493,0,0,0,61.4,29.021L55,24.457c-1.844,2.237-3.731,3.73-6.936,3.73-4.3,0-7.331-3.6-7.331-8.208v-.088c0-4.477,3.029-8.121,7.331-8.121,2.941,0,4.961,1.4,6.716,3.6l6.409-4.961C58.464,6.634,54.425,4,48.148,4a15.786,15.786,0,0,0-16.2,15.979v.088A15.6,15.6,0,0,0,47.8,35.958M17.4,35.87c7.463,0,12.423-3.731,12.423-10.01v-.087c0-5.75-4.39-8.034-11.457-9.57-4.258-.966-5.312-1.58-5.312-2.985V13.13c0-1.1,1.01-1.975,3.073-1.975a15.408,15.408,0,0,1,8.6,3.029L28.987,8.17A19.34,19.34,0,0,0,16.344,4.087c-7.374,0-11.9,4.127-11.9,9.833v.088c0,6.321,5.048,8.165,11.589,9.657,4.17.966,5.18,1.669,5.18,2.941v.087c0,1.317-1.229,2.107-3.512,2.107a15.827,15.827,0,0,1-9.964-3.687L3,30.777A21.462,21.462,0,0,0,17.4,35.87"/>
    <path id="Path_5" data-name="Path 5" d="M199.063,34.72h-1.971v1.946h1.971ZM192.552,33.1h-2.264l1.132-2.765Zm3.409,3.564-3.652-8.581H190.58l-3.652,8.581h1.911l.779-1.911h3.6L194,36.666ZM185.818,34.72h-1.971v1.946h1.971Zm-3.235-.573v-.024c0-1.486-.974-2.106-2.7-2.557-1.475-.378-1.839-.561-1.839-1.121v-.024c0-.414.377-.743,1.1-.743a3.99,3.99,0,0,1,2.216.842l.974-1.412a4.93,4.93,0,0,0-3.165-1.083c-1.741,0-2.982,1.021-2.982,2.567v.024c0,1.693,1.107,2.167,2.824,2.606,1.425.364,1.717.608,1.717,1.084v.023c0,.5-.463.8-1.229.8a3.908,3.908,0,0,1-2.545-1.034l-1.106,1.326a5.419,5.419,0,0,0,3.615,1.362c1.836,0,3.125-.948,3.125-2.64m-13.8-1.045h-2.264l1.132-2.765Zm3.41,3.564-3.651-8.581h-1.729l-3.652,8.581h1.911l.779-1.911h3.6l.779,1.911Zm-8.351-6.793V28.146h-7.06v1.727h2.594v6.793h1.873V29.873Zm-9.8,3.229h-2.265l1.132-2.765Zm3.408,3.564L153.8,28.085h-1.729l-3.651,8.581h1.911l.778-1.911h3.6l.778,1.911Zm-9.646,0v-1.7h-4.249V28.147h-1.873v8.52H147.8Zm-9.089-5.514a1.321,1.321,0,0,1-1.486,1.291H135.74V29.837h1.45c.938,0,1.522.45,1.522,1.291v.024Zm1.9-.036v-.025c0-1.74-1.229-2.944-3.262-2.944h-3.48v8.52h1.872V34.11h1.426c1.912,0,3.444-1.022,3.444-2.994m-11.078,5.55v-1.7h-4.249V28.147H123.41v8.52h6.121Zm-7.6,0V35H117.3V33.209h4.017V31.542H117.3V29.813h4.564V28.147h-6.426v8.52h6.488Zm-9.8-4.235a2.43,2.43,0,0,1-2.57,2.545h-1.449V29.837h1.449a2.449,2.449,0,0,1,2.57,2.569Zm1.958-.025v-.024a4.246,4.246,0,0,0-4.528-4.235h-3.323v8.52h3.323a4.266,4.266,0,0,0,4.528-4.261"/>
    <path id="Path_6" data-name="Path 6" d="M178.827,24.666v-1.7h-4.248V16.146h-1.874v8.52ZM168.36,21.1H166.1l1.133-2.764Zm3.41,3.565-3.653-8.581h-1.728l-3.652,8.581h1.911l.779-1.911h3.6l.78,1.911Zm-9.99-8.52h-1.873v8.52h1.873Zm-3,7.146-1.192-1.2a3.078,3.078,0,0,1-2.24,1,2.533,2.533,0,0,1-2.473-2.679v-.024a2.526,2.526,0,0,1,2.473-2.655,3.144,3.144,0,0,1,2.179.962l1.193-1.375A4.4,4.4,0,0,0,155.36,16a4.328,4.328,0,0,0-4.441,4.406v.025a4.3,4.3,0,0,0,4.368,4.381,4.355,4.355,0,0,0,3.493-1.52m-10.668-4.213c0,.719-.523,1.206-1.437,1.206h-1.9V17.837h1.863c.914,0,1.474.414,1.474,1.218v.024Zm2.154,5.587-2.08-3.043a2.644,2.644,0,0,0,1.825-2.641v-.025c0-1.753-1.205-2.811-3.213-2.811h-3.9v8.52h1.873V21.938h1.474l1.826,2.728Zm-8.846,0V23h-4.627V21.209h4.018V19.543h-4.018V17.812h4.565V16.146h-6.427v8.52Zm-8.3,0v-8.52H131.1l-2.241,3.6-2.241-3.6H124.6v8.52h1.837V19.14l2.374,3.6h.049l2.4-3.639v5.562h1.861ZM121.28,20.431a2.549,2.549,0,0,1-2.557,2.654,2.59,2.59,0,0,1-2.582-2.679v-.024a2.55,2.55,0,0,1,2.557-2.655,2.59,2.59,0,0,1,2.582,2.679Zm1.958-.025v-.024a4.53,4.53,0,0,0-9.056.024v.025a4.53,4.53,0,0,0,9.056-.025m-9.521,2.886-1.193-1.2a3.075,3.075,0,0,1-2.24,1,2.531,2.531,0,0,1-2.471-2.679v-.024a2.525,2.525,0,0,1,2.471-2.655,3.145,3.145,0,0,1,2.18.962l1.192-1.375A4.4,4.4,0,0,0,110.3,16a4.329,4.329,0,0,0-4.442,4.406v.025a4.3,4.3,0,0,0,4.369,4.381,4.357,4.357,0,0,0,3.493-1.52"/>
    <path id="Path_7" data-name="Path 7" d="M167.656,8.431a2.429,2.429,0,0,1-2.569,2.545h-1.449V5.836h1.449a2.448,2.448,0,0,1,2.569,2.57Zm1.958-.025V8.381a4.245,4.245,0,0,0-4.527-4.235h-3.322v8.52h3.322a4.262,4.262,0,0,0,4.527-4.26M157.419,9.1h-2.265l1.132-2.763Zm3.408,3.566-3.651-8.581h-1.729L151.8,12.667h1.91l.779-1.912h3.6l.778,1.912ZM149.755,8.431a2.429,2.429,0,0,1-2.569,2.545h-1.45V5.836h1.45a2.448,2.448,0,0,1,2.569,2.57Zm1.959-.025V8.381a4.245,4.245,0,0,0-4.528-4.235h-3.323v8.52h3.323a4.264,4.264,0,0,0,4.528-4.26m-9.334,4.261V11h-4.626V9.208h4.017V7.542h-4.017V5.812h4.564V4.146h-6.426v8.52h6.488Zm-8.318-8.521h-1.873v8.52h1.873Zm-3,7.146-1.193-1.2a3.074,3.074,0,0,1-2.239,1,2.532,2.532,0,0,1-2.472-2.679V8.381a2.525,2.525,0,0,1,2.472-2.654,3.144,3.144,0,0,1,2.179.962L131,5.313A4.409,4.409,0,0,0,127.641,4,4.329,4.329,0,0,0,123.2,8.407v.024a4.3,4.3,0,0,0,4.369,4.382,4.358,4.358,0,0,0,3.494-1.521M120.314,8.431a2.55,2.55,0,0,1-2.557,2.655,2.589,2.589,0,0,1-2.581-2.679V8.381a2.549,2.549,0,0,1,2.557-2.654,2.589,2.589,0,0,1,2.581,2.679Zm1.959-.025V8.381a4.53,4.53,0,0,0-9.056.025V8.43a4.53,4.53,0,0,0,9.056-.024m-9.883,1.741v-.024c0-1.486-.974-2.107-2.7-2.558-1.473-.377-1.839-.56-1.839-1.12V6.421c0-.414.378-.743,1.1-.743a4,4,0,0,1,2.216.84l.975-1.412a4.935,4.935,0,0,0-3.165-1.082c-1.741,0-2.982,1.021-2.982,2.567v.025c0,1.692,1.107,2.167,2.823,2.606,1.426.365,1.718.608,1.718,1.083v.025c0,.5-.463.8-1.229.8a3.9,3.9,0,0,1-2.545-1.035l-1.107,1.327a5.423,5.423,0,0,0,3.615,1.362c1.837,0,3.126-.948,3.126-2.64"/>
  </g>
</svg>
